<svg xmlns="http://www.w3.org/2000/svg" viewBox="0 0 85.4 84.7"><path fill="#d71f25" stroke="#d71f25" stroke-miterlimit="10" d="M78.6 65.1l-8.5-8.5c-.5-.5-1.3-.5-1.9 0L57.3 67.5c-.5.5-.5 1.3 0 1.9l8.5 8.5-3.1 3.1-10.1-10.1.9-9.8 1.7-1.7 5-5 1.7-1.7 9.8-.9 10 10.2-3.1 3.1zm-46.4-6.6l-1.6-1.6-3.5-3.5-3.5-3.4-1.6-1.6 4.4-1.9 1.9 1.9 4 4 1.9 1.9-2 4.2zM13 77.1l-9.5-9.5 1.2-2.1 5.2 5.2 5.2 5.2-2.1 1.2zm6.7-27.3l1.1 1.1L7.3 64.5l-1.1-1.1 13.5-13.6zm-8.9 18.1l-1.6-1.6 13.6-13.6 1.6 1.6-13.6 13.6zm3.4 3.5l-1.6-1.6 13.6-13.6 1.6 1.6-13.6 13.6zm3 3l-1.1-1.1 13.6-13.6 1.1 1.1-13.6 13.6zm7.1-42.5l-9.8.9L4.4 22.7l3.1-3.1 8.5 8.5c.5.5 1.3.5 1.9 0l10.9-10.9c.5-.5.5-1.3 0-1.9l-8.5-8.5 3.1-3.1 10.1 10.1-.9 9.8-1.7 1.7-5 5-1.6 1.6zm37.5-21.2l9.9-4.5 2.7 2.7-4.5 9.9-7.4 7.4-2.1-2.1-4-4-2.1-2.1 7.5-7.3zm-4.2 14.4L45.1 37.6 43 35.5 55.5 23l2.1 2.1zM31 47.4l5.1-5.1 2.1 2.1-5.1 5.1-2.1-2.1zm23.2 9.2L41.1 43.5l-4-4-8.3-8.3 3.1-3.1 8.3 8.3 4 4 13.2 13.2-3.2 3zm30.3 4.5L73.1 49.6c-.3-.3-.7-.4-1.1-.4l-10.9 1c-.3 0-.6.2-.8.4l-1.1 1.1L47 39.4l12.5-12.5 2.1 2.1c.3.3.6.4.9.4.3 0 .7-.1.9-.4l8.5-8.5c.1-.1.2-.2.3-.4l5-10.9c.2-.5.1-1.1-.3-1.5l-4-4c-.4-.4-1-.5-1.5-.3l-10.9 5c-.1.1-.3.2-.4.3l-8.5 8.5c-.5.5-.5 1.3 0 1.9l2.1 2.1-12.6 12.4-7.4-7.4 1.1-1.1c.2-.2.4-.5.4-.8l1-10.9c0-.4-.1-.8-.4-1.1L24.3.9c-.5-.5-1.3-.5-1.9 0l-5 5c-.5.5-.5 1.3 0 1.9l8.5 8.5-9.1 9.1-8.5-8.5c-.5-.5-1.3-.5-1.9 0l-5 5c-.5.5-.5 1.3 0 1.9L13 35.1c.2.2.6.4.9.4h.1l10.9-1c.3 0 .6-.2.8-.4l1.1-1.1 7.4 7.4-5.1 5.1-1.5-1.5c-.4-.4-1-.5-1.5-.3l-6.9 3h-.1-.1-.1l-.1.1L3.4 62.4l-.1.1V62.8L.8 67.2c-.3.5-.2 1.2.2 1.6l10.9 10.9c.3.3.6.4.9.4.2 0 .4-.1.6-.2l4.5-2.5h.2l.1-.1 15.4-15.4v-.1l.1-.1.1-.1 3-6.9c.2-.5.1-1.1-.3-1.5L35 51.4l5.1-5.1 12.2 12.2-1.1 1.1c-.2.2-.4.5-.4.8l-1 10.9c0 .4.1.8.4 1.1l11.4 11.4c.3.3.6.4.9.4.3 0 .7-.1.9-.4l5-5c.5-.5.5-1.3 0-1.9l-8.5-8.5 9.1-9.1 8.5 8.5c.5.5 1.3.5 1.9 0l5-5c.6-.4.6-1.2.1-1.7z"/></svg>